<mxfile host="app.diagrams.net" agent="Mozilla/5.0 (X11; Linux x86_64) AppleWebKit/537.36 (KHTML, like Gecko) Chrome/128.0.0.0 Safari/537.36" version="24.7.14">
  <diagram id="C5RBs43oDa-KdzZeNtuy" name="Page-1">
    <mxGraphModel dx="988" dy="546" grid="1" gridSize="10" guides="1" tooltips="1" connect="1" arrows="1" fold="1" page="1" pageScale="1" pageWidth="827" pageHeight="1169" math="0" shadow="0">
      <root>
        <mxCell id="WIyWlLk6GJQsqaUBKTNV-0" />
        <mxCell id="WIyWlLk6GJQsqaUBKTNV-1" parent="WIyWlLk6GJQsqaUBKTNV-0" />
        <mxCell id="dvF2nLzVKeMTQjdwGsAq-9" style="edgeStyle=orthogonalEdgeStyle;rounded=0;orthogonalLoop=1;jettySize=auto;html=1;dashed=1;entryX=0.004;entryY=0.358;entryDx=0;entryDy=0;entryPerimeter=0;" edge="1" parent="WIyWlLk6GJQsqaUBKTNV-1" source="dvF2nLzVKeMTQjdwGsAq-1" target="dvF2nLzVKeMTQjdwGsAq-10">
          <mxGeometry relative="1" as="geometry">
            <mxPoint x="240" y="105" as="targetPoint" />
          </mxGeometry>
        </mxCell>
        <mxCell id="dvF2nLzVKeMTQjdwGsAq-1" value="" style="whiteSpace=wrap;html=1;aspect=fixed;fillColor=#E6E6E6;" vertex="1" parent="WIyWlLk6GJQsqaUBKTNV-1">
          <mxGeometry x="40" y="35" width="145" height="145" as="geometry" />
        </mxCell>
        <mxCell id="dvF2nLzVKeMTQjdwGsAq-2" value="NTP" style="rounded=1;whiteSpace=wrap;html=1;strokeColor=#DB0000;fillColor=#E6E6E6;" vertex="1" parent="WIyWlLk6GJQsqaUBKTNV-1">
          <mxGeometry x="50" y="50" width="75" height="30" as="geometry" />
        </mxCell>
        <mxCell id="dvF2nLzVKeMTQjdwGsAq-7" value="DNS" style="rounded=1;whiteSpace=wrap;html=1;strokeColor=#DB0000;fillColor=#E6E6E6;" vertex="1" parent="WIyWlLk6GJQsqaUBKTNV-1">
          <mxGeometry x="50" y="90" width="75" height="30" as="geometry" />
        </mxCell>
        <mxCell id="dvF2nLzVKeMTQjdwGsAq-8" value="DHCP" style="rounded=1;whiteSpace=wrap;html=1;strokeColor=#DB0000;fillColor=#E6E6E6;" vertex="1" parent="WIyWlLk6GJQsqaUBKTNV-1">
          <mxGeometry x="50" y="130" width="75" height="30" as="geometry" />
        </mxCell>
        <mxCell id="dvF2nLzVKeMTQjdwGsAq-25" style="edgeStyle=orthogonalEdgeStyle;rounded=0;orthogonalLoop=1;jettySize=auto;html=1;entryX=0.522;entryY=0.022;entryDx=0;entryDy=0;entryPerimeter=0;" edge="1" parent="WIyWlLk6GJQsqaUBKTNV-1" target="dvF2nLzVKeMTQjdwGsAq-26">
          <mxGeometry relative="1" as="geometry">
            <mxPoint x="399.48" y="360" as="targetPoint" />
            <mxPoint x="384.48" y="230" as="sourcePoint" />
            <Array as="points">
              <mxPoint x="390" y="231" />
              <mxPoint x="390" y="296" />
              <mxPoint x="400" y="296" />
            </Array>
          </mxGeometry>
        </mxCell>
        <mxCell id="dvF2nLzVKeMTQjdwGsAq-10" value="" style="rounded=0;whiteSpace=wrap;html=1;fillColor=#E6E6E6;" vertex="1" parent="WIyWlLk6GJQsqaUBKTNV-1">
          <mxGeometry x="260" y="35" width="250" height="235" as="geometry" />
        </mxCell>
        <mxCell id="dvF2nLzVKeMTQjdwGsAq-12" value="&lt;b&gt;Jumphost&lt;/b&gt;" style="text;html=1;align=center;verticalAlign=middle;resizable=0;points=[];autosize=1;strokeColor=none;fillColor=none;" vertex="1" parent="WIyWlLk6GJQsqaUBKTNV-1">
          <mxGeometry x="105" y="160" width="80" height="30" as="geometry" />
        </mxCell>
        <mxCell id="dvF2nLzVKeMTQjdwGsAq-13" value="&lt;b&gt;Quay&lt;/b&gt;" style="rounded=1;whiteSpace=wrap;html=1;strokeColor=#DB0000;dashed=1;fillColor=#E6E6E6;" vertex="1" parent="WIyWlLk6GJQsqaUBKTNV-1">
          <mxGeometry x="280" y="50" width="75" height="30" as="geometry" />
        </mxCell>
        <mxCell id="dvF2nLzVKeMTQjdwGsAq-15" value="&lt;b&gt;ODF&lt;/b&gt;" style="rounded=1;whiteSpace=wrap;html=1;strokeColor=#DB0000;fillColor=#E6E6E6;" vertex="1" parent="WIyWlLk6GJQsqaUBKTNV-1">
          <mxGeometry x="280" y="90" width="75" height="30" as="geometry" />
        </mxCell>
        <mxCell id="dvF2nLzVKeMTQjdwGsAq-16" value="&lt;b&gt;RH GitOps&lt;br&gt;(ArgoCD)&lt;/b&gt;" style="rounded=1;whiteSpace=wrap;html=1;strokeColor=#DB0000;fillColor=#E6E6E6;" vertex="1" parent="WIyWlLk6GJQsqaUBKTNV-1">
          <mxGeometry x="280" y="130" width="75" height="30" as="geometry" />
        </mxCell>
        <mxCell id="dvF2nLzVKeMTQjdwGsAq-17" value="&lt;b&gt;ACM&lt;/b&gt;" style="rounded=1;whiteSpace=wrap;html=1;strokeColor=#DB0000;fillColor=#E6E6E6;" vertex="1" parent="WIyWlLk6GJQsqaUBKTNV-1">
          <mxGeometry x="400" y="50" width="75" height="30" as="geometry" />
        </mxCell>
        <mxCell id="dvF2nLzVKeMTQjdwGsAq-18" value="&lt;b&gt;GitLab&lt;/b&gt;" style="rounded=1;whiteSpace=wrap;html=1;strokeColor=#DB0000;fillColor=#E6E6E6;" vertex="1" parent="WIyWlLk6GJQsqaUBKTNV-1">
          <mxGeometry x="400" y="90" width="75" height="30" as="geometry" />
        </mxCell>
        <mxCell id="dvF2nLzVKeMTQjdwGsAq-19" value="&lt;b&gt;HUB Cluster&lt;/b&gt;" style="text;html=1;align=center;verticalAlign=middle;resizable=0;points=[];autosize=1;strokeColor=none;fillColor=none;" vertex="1" parent="WIyWlLk6GJQsqaUBKTNV-1">
          <mxGeometry x="420" y="240" width="90" height="30" as="geometry" />
        </mxCell>
        <mxCell id="dvF2nLzVKeMTQjdwGsAq-21" value="&lt;font color=&quot;#ffffff&quot;&gt;Master + Storage&lt;/font&gt;" style="rounded=0;whiteSpace=wrap;html=1;fillColor=#B80000;strokeColor=#FFFFFF;" vertex="1" parent="WIyWlLk6GJQsqaUBKTNV-1">
          <mxGeometry x="280" y="170" width="200" height="20" as="geometry" />
        </mxCell>
        <mxCell id="dvF2nLzVKeMTQjdwGsAq-22" value="&lt;font color=&quot;#ffffff&quot;&gt;Master + Storage&lt;/font&gt;" style="rounded=0;whiteSpace=wrap;html=1;fillColor=#B80000;strokeColor=#FFFFFF;" vertex="1" parent="WIyWlLk6GJQsqaUBKTNV-1">
          <mxGeometry x="280" y="190" width="200" height="20" as="geometry" />
        </mxCell>
        <mxCell id="dvF2nLzVKeMTQjdwGsAq-23" value="&lt;font color=&quot;#ffffff&quot;&gt;Master + Storage&lt;/font&gt;" style="rounded=0;whiteSpace=wrap;html=1;fillColor=#B80000;strokeColor=#FFFFFF;" vertex="1" parent="WIyWlLk6GJQsqaUBKTNV-1">
          <mxGeometry x="280" y="210" width="200" height="20" as="geometry" />
        </mxCell>
        <mxCell id="dvF2nLzVKeMTQjdwGsAq-26" value="&lt;b&gt;Type C Cluster (CWL)&lt;/b&gt;" style="rounded=0;whiteSpace=wrap;html=1;fillColor=#E6E6E6;strokeColor=none;" vertex="1" parent="WIyWlLk6GJQsqaUBKTNV-1">
          <mxGeometry x="290" y="340" width="210" height="30" as="geometry" />
        </mxCell>
        <mxCell id="dvF2nLzVKeMTQjdwGsAq-27" value="&lt;font color=&quot;#ffffff&quot;&gt;Master&lt;/font&gt;" style="rounded=0;whiteSpace=wrap;html=1;fillColor=#B80000;strokeColor=#FFFFFF;" vertex="1" parent="WIyWlLk6GJQsqaUBKTNV-1">
          <mxGeometry x="290" y="370" width="210" height="20" as="geometry" />
        </mxCell>
        <mxCell id="dvF2nLzVKeMTQjdwGsAq-28" value="&lt;font color=&quot;#ffffff&quot;&gt;Master&lt;/font&gt;" style="rounded=0;whiteSpace=wrap;html=1;fillColor=#B80000;strokeColor=#FFFFFF;" vertex="1" parent="WIyWlLk6GJQsqaUBKTNV-1">
          <mxGeometry x="290" y="410" width="210" height="20" as="geometry" />
        </mxCell>
        <mxCell id="dvF2nLzVKeMTQjdwGsAq-29" value="&lt;font color=&quot;#ffffff&quot;&gt;Master&lt;/font&gt;" style="rounded=0;whiteSpace=wrap;html=1;fillColor=#B80000;strokeColor=#FFFFFF;" vertex="1" parent="WIyWlLk6GJQsqaUBKTNV-1">
          <mxGeometry x="290" y="390" width="210" height="20" as="geometry" />
        </mxCell>
        <mxCell id="dvF2nLzVKeMTQjdwGsAq-30" value="&lt;font color=&quot;#ffffff&quot;&gt;AppWorker&lt;/font&gt;" style="rounded=0;whiteSpace=wrap;html=1;fillColor=#B80000;strokeColor=#FFFFFF;" vertex="1" parent="WIyWlLk6GJQsqaUBKTNV-1">
          <mxGeometry x="290" y="430" width="210" height="20" as="geometry" />
        </mxCell>
        <mxCell id="dvF2nLzVKeMTQjdwGsAq-31" value="&lt;span style=&quot;color: rgb(255, 255, 255);&quot;&gt;AppWorker&lt;/span&gt;" style="rounded=0;whiteSpace=wrap;html=1;fillColor=#B80000;strokeColor=#FFFFFF;" vertex="1" parent="WIyWlLk6GJQsqaUBKTNV-1">
          <mxGeometry x="290" y="450" width="210" height="20" as="geometry" />
        </mxCell>
        <mxCell id="dvF2nLzVKeMTQjdwGsAq-32" value="&lt;span style=&quot;color: rgb(255, 255, 255);&quot;&gt;GateWayWorker&lt;/span&gt;" style="rounded=0;whiteSpace=wrap;html=1;fillColor=#B80000;strokeColor=#FFFFFF;" vertex="1" parent="WIyWlLk6GJQsqaUBKTNV-1">
          <mxGeometry x="290" y="510" width="210" height="20" as="geometry" />
        </mxCell>
        <mxCell id="dvF2nLzVKeMTQjdwGsAq-33" value="&lt;span style=&quot;color: rgb(255, 255, 255);&quot;&gt;AppWorker&lt;/span&gt;" style="rounded=0;whiteSpace=wrap;html=1;fillColor=#B80000;strokeColor=#FFFFFF;" vertex="1" parent="WIyWlLk6GJQsqaUBKTNV-1">
          <mxGeometry x="290" y="470" width="210" height="20" as="geometry" />
        </mxCell>
        <mxCell id="dvF2nLzVKeMTQjdwGsAq-34" value="&lt;span style=&quot;color: rgb(255, 255, 255);&quot;&gt;AppWorker&lt;/span&gt;" style="rounded=0;whiteSpace=wrap;html=1;fillColor=#B80000;strokeColor=#FFFFFF;" vertex="1" parent="WIyWlLk6GJQsqaUBKTNV-1">
          <mxGeometry x="290" y="490" width="210" height="20" as="geometry" />
        </mxCell>
        <mxCell id="dvF2nLzVKeMTQjdwGsAq-35" value="&lt;span style=&quot;color: rgb(255, 255, 255);&quot;&gt;GateWayWorker&lt;/span&gt;" style="rounded=0;whiteSpace=wrap;html=1;fillColor=#B80000;strokeColor=#FFFFFF;" vertex="1" parent="WIyWlLk6GJQsqaUBKTNV-1">
          <mxGeometry x="290" y="530" width="210" height="20" as="geometry" />
        </mxCell>
        <mxCell id="dvF2nLzVKeMTQjdwGsAq-36" value="&lt;font color=&quot;#ffffff&quot;&gt;StorageWorker&lt;/font&gt;" style="rounded=0;whiteSpace=wrap;html=1;fillColor=#B80000;strokeColor=#FFFFFF;" vertex="1" parent="WIyWlLk6GJQsqaUBKTNV-1">
          <mxGeometry x="290" y="550" width="210" height="20" as="geometry" />
        </mxCell>
        <mxCell id="dvF2nLzVKeMTQjdwGsAq-40" value="&lt;span style=&quot;color: rgb(255, 255, 255);&quot;&gt;StorageWorker&lt;/span&gt;" style="rounded=0;whiteSpace=wrap;html=1;fillColor=#B80000;strokeColor=#FFFFFF;" vertex="1" parent="WIyWlLk6GJQsqaUBKTNV-1">
          <mxGeometry x="290" y="570" width="210" height="20" as="geometry" />
        </mxCell>
        <mxCell id="dvF2nLzVKeMTQjdwGsAq-41" value="&lt;span style=&quot;color: rgb(255, 255, 255);&quot;&gt;StorageWorker&lt;/span&gt;" style="rounded=0;whiteSpace=wrap;html=1;fillColor=#B80000;strokeColor=#FFFFFF;" vertex="1" parent="WIyWlLk6GJQsqaUBKTNV-1">
          <mxGeometry x="290" y="590" width="210" height="20" as="geometry" />
        </mxCell>
        <mxCell id="dvF2nLzVKeMTQjdwGsAq-42" value="&lt;span style=&quot;color: rgb(255, 255, 255);&quot;&gt;StorageWorker&lt;/span&gt;" style="rounded=0;whiteSpace=wrap;html=1;fillColor=#B80000;strokeColor=#FFFFFF;" vertex="1" parent="WIyWlLk6GJQsqaUBKTNV-1">
          <mxGeometry x="290" y="610" width="210" height="20" as="geometry" />
        </mxCell>
      </root>
    </mxGraphModel>
  </diagram>
</mxfile>
